<svg xmlns:x="http://ns.adobe.com/Extensibility/1.0/" xmlns:i="http://ns.adobe.com/AdobeIllustrator/10.0/"
    xmlns:graph="http://ns.adobe.com/Graphs/1.0/" xmlns="http://www.w3.org/2000/svg"
    xmlns:xlink="http://www.w3.org/1999/xlink" version="1.1" x="0px" y="0px" viewBox="0 0 100 100">
    <g fill="white">
        <path
            d="M37.2,49.1c0.5,0.6,1.4,0.2,1.4-0.6c-0.5-5.4-3.7-10-7.9-11.5c2.6-0.4,6-0.2,10.1,0.6c0.7,0.1,1.2-0.7,0.7-1.3     c-4.1-4.6-10.4-6.4-15.3-5.1c0.7-1.4,1.7-2.9,3-4.2c0.5-0.6,0-1.5-0.7-1.3c-3.9,0.8-7.4,3.1-9.3,6.2c-3.7-1.5-8.5-1.6-12.7,0.3     c-0.7,0.3-0.5,1.4,0.3,1.5c2,0.1,4.1,0.6,5.8,1.4c-4.8,1.5-9.2,6.7-10,12.9c-0.1,0.7,0.8,1.2,1.3,0.7c2.6-2.7,5.7-4.9,8.6-6     c-3,3.4-3.5,8.9-1.6,13.6c0.3,0.7,1.3,0.6,1.5-0.1c1.2-6,4.2-9.7,8-10.6c4.4,11.6,2,23.1,0.7,27.1c-0.3,0.9,0.4,1.8,1.3,1.8h6.5     c0.8,0,1.4-0.6,1.4-1.4c0.1-4-0.3-17.2-5.5-29.1C28.9,42.9,33.3,44.5,37.2,49.1z" />
        <path
            d="M87.5,35c1.8-0.8,3.8-1.3,5.8-1.4c0.8-0.1,1-1.2,0.3-1.5c-4.3-1.9-9-1.8-12.7-0.3c-1.9-3.1-5.3-5.4-9.3-6.2     c-0.8-0.2-1.2,0.7-0.7,1.3c1.2,1.3,2.2,2.7,3,4.2c-4.8-1.3-11.1,0.5-15.3,5.1c-0.5,0.6,0,1.4,0.7,1.3c4.1-0.8,7.5-1,10.1-0.6     c-4.1,1.5-7.4,6-7.9,11.5c-0.1,0.8,0.9,1.2,1.4,0.6c3.9-4.6,8.3-6.2,12.3-5.2c-5.2,11.8-5.5,25.1-5.5,29.1c0,0.8,0.6,1.4,1.4,1.4     h6.5c1,0,1.6-0.9,1.3-1.8c-1.3-4-3.6-15.5,0.7-27.1c3.8,0.8,6.8,4.6,8,10.6c0.2,0.8,1.2,0.9,1.5,0.1c1.9-4.7,1.4-10.2-1.6-13.6     c2.9,1.1,6,3.4,8.6,6c0.5,0.5,1.4,0.1,1.3-0.7C96.6,41.7,92.3,36.6,87.5,35z" />
        <path
            d="M68.5,54.6C63.4,56.1,57,56.9,50,56.9s-13.4-0.9-18.5-2.3c-0.3-0.1-0.6,0.2-0.6,0.5c1.1,6.1,9.2,10.8,19,10.8     s18-4.7,19-10.8C69.1,54.8,68.8,54.5,68.5,54.6z" />
    </g>
</svg>